<?xml version="1.0" encoding="utf-8"?>
<!-- Generator: Adobe Illustrator 24.0.3, SVG Export Plug-In . SVG Version: 6.00 Build 0)  -->
<svg version="1.1" id="Layer_1" xmlns="http://www.w3.org/2000/svg" xmlns:xlink="http://www.w3.org/1999/xlink" x="0px" y="0px"
	 viewBox="0 0 140 140" style="enable-background:new 0 0 140 140;" xml:space="preserve">
<style type="text/css">
	.st0{fill:#213B6C;}
</style>
<g>
	<g id="Group_616" transform="translate(4.698)">
		<g id="Group_615">
			<path id="Path_38" class="st0" d="M82.87,23.62c-1.4-9.7-10.41-16.43-20.11-15.03c-4.72,0.68-8.97,3.24-11.79,7.09
				c-0.7,0.91-0.53,2.23,0.38,2.93c0.91,0.7,2.23,0.53,2.93-0.38c0.02-0.03,0.04-0.06,0.06-0.08c4.39-6.07,12.86-7.43,18.93-3.04
				c2.99,2.16,4.97,5.45,5.48,9.1c0.15,1.03,1.03,1.79,2.07,1.79h0.3C82.26,25.83,83.05,24.77,82.87,23.62
				C82.88,23.62,82.88,23.62,82.87,23.62z"/>
		</g>
	</g>
	<g id="Group_618" transform="translate(0.524 3.404)">
		<g id="Group_617">
			<path id="Path_39" class="st0" d="M117.21,43.59l-6.26-10.43c-0.38-0.63-1.06-1.01-1.79-1.01h-6.01c-1.15,0-2.09,0.94-2.08,2.09
				c0,1.15,0.93,2.08,2.08,2.08h4.78l3.76,6.27H27.16l3.76-6.27h2.21c1.15,0,2.09-0.94,2.08-2.09c0-1.15-0.93-2.08-2.08-2.08h-3.4
				c-0.73,0-1.42,0.38-1.79,1.01L21.66,43.6c-0.61,0.98-0.31,2.27,0.68,2.88c0.34,0.21,0.72,0.32,1.12,0.31h91.97
				c1.15,0.01,2.1-0.92,2.11-2.07C117.53,44.32,117.43,43.93,117.21,43.59L117.21,43.59z"/>
		</g>
	</g>
	<g id="Group_620" transform="translate(6.903 1.467)">
		<g id="Group_619">
			<path id="Path_40" class="st0" d="M100.42,26.28c-0.29-0.47-0.76-0.81-1.3-0.93l-28.47-6.66c-1.12-0.26-2.25,0.44-2.51,1.57
				c0,0.01,0,0.02-0.01,0.03L66,29.46c-0.22,1.13,0.51,2.23,1.64,2.46c1.08,0.21,2.14-0.45,2.42-1.51l1.67-7.18l24.4,5.71
				l-3.84,16.4c-0.26,1.13,0.45,2.24,1.58,2.5c0.01,0,0.01,0,0.02,0c0.16,0.04,0.32,0.06,0.48,0.06c0.97,0,1.81-0.66,2.03-1.59
				l4.31-18.43C100.84,27.32,100.73,26.75,100.42,26.28z"/>
		</g>
	</g>
	<g id="Group_622" transform="translate(1.545 0.796)">
		<g id="Group_621">
			<path id="Path_41" class="st0" d="M69.56,31.88l-1.87-16.13c-0.14-1.14-1.18-1.96-2.32-1.83l-34.93,4.13
				c-1.14,0.14-1.96,1.18-1.83,2.32l3.19,26.84c0.13,1.05,1.02,1.84,2.07,1.84h0.25c1.14-0.14,1.96-1.18,1.83-2.32l-2.93-24.77
				l30.78-3.64l1.66,14.02c0.18,1.14,1.25,1.92,2.39,1.74c1.07-0.17,1.84-1.14,1.76-2.22L69.56,31.88z"/>
		</g>
	</g>
	<g id="Group_624" transform="translate(3.501 2.514)">
		<g id="Group_623">
			<path id="Path_42" class="st0" d="M84.12,44.77l-4.15-17.23c-0.27-1.12-1.4-1.81-2.52-1.54l-33.62,8.09
				c-1.12,0.27-1.81,1.4-1.54,2.52l2.07,8.61c0.22,1.13,1.31,1.88,2.44,1.66c1.13-0.22,1.88-1.31,1.66-2.44
				c-0.01-0.06-0.03-0.13-0.05-0.19l-1.59-6.59l29.58-7.11l3.66,15.21c0.31,1.11,1.47,1.76,2.58,1.45
				C83.7,46.9,84.35,45.84,84.12,44.77L84.12,44.77z"/>
		</g>
	</g>
	<g id="Group_626" transform="translate(0 4.714)">
		<g id="Group_625">
			<path id="Path_43" class="st0" d="M118.03,43.25c-0.06-1.11-0.98-1.98-2.09-1.98H24.05c-1.11,0-2.03,0.87-2.09,1.98l-4.17,81.43
				c-0.06,1.15,0.83,2.13,1.98,2.19c0.04,0,0.07,0,0.11,0h100.24c1.15,0,2.09-0.93,2.09-2.09c0-0.04,0-0.07,0-0.11L118.03,43.25z
				 M22.11,122.72l3.99-77.27h87.86l3.99,77.27H22.11z"/>
		</g>
	</g>
	<g id="Group_628" transform="translate(7.725 5.761)">
		<g id="Group_627">
			<path id="Path_44" class="st0" d="M77.94,48.58c-3.46,0-6.27,2.81-6.27,6.27s2.81,6.27,6.27,6.27c3.46,0,6.27-2.81,6.27-6.27
				C84.21,51.38,81.4,48.58,77.94,48.58L77.94,48.58z M77.94,56.94c-1.15,0-2.09-0.94-2.09-2.09s0.94-2.09,2.09-2.09
				c1.15,0,2.09,0.94,2.09,2.09S79.1,56.94,77.94,56.94L77.94,56.94z"/>
		</g>
	</g>
	<g id="Group_630" transform="translate(3.797 5.761)">
		<g id="Group_629">
			<path id="Path_45" class="st0" d="M50.54,48.58c-3.46,0-6.27,2.81-6.27,6.27s2.81,6.27,6.27,6.27c3.46,0,6.27-2.81,6.27-6.27
				C56.81,51.38,54.01,48.58,50.54,48.58L50.54,48.58z M50.54,56.94c-1.15,0-2.09-0.94-2.09-2.09s0.94-2.09,2.09-2.09
				s2.09,0.94,2.09,2.09S51.7,56.94,50.54,56.94L50.54,56.94z"/>
		</g>
	</g>
	<g id="Group_632" transform="translate(4.321 6.547)">
		<g id="Group_631">
			<path id="Path_46" class="st0" d="M81.35,54.06h-0.16c-1.15,0-2.09,0.94-2.09,2.09l0,0c0,0.27,0.05,0.54,0.16,0.8v10.68
				c0,7.49-6.07,13.56-13.56,13.56c-7.49,0-13.56-6.07-13.56-13.56l0,0V56.14c0-1.15-0.94-2.09-2.09-2.09
				c-1.15,0-2.09,0.94-2.09,2.09v11.48c0,9.8,7.95,17.75,17.75,17.75c9.8,0,17.75-7.95,17.75-17.75V56.14c0-1.15-0.94-2.09-2.1-2.08
				C81.36,54.06,81.35,54.06,81.35,54.06z"/>
		</g>
	</g>
</g>
</svg>
