<?xml version="1.0" encoding="utf-8"?>
<!-- Generator: Adobe Illustrator 24.0.3, SVG Export Plug-In . SVG Version: 6.00 Build 0)  -->
<svg version="1.1" id="Layer_1" xmlns="http://www.w3.org/2000/svg" xmlns:xlink="http://www.w3.org/1999/xlink" x="0px" y="0px"
	 viewBox="0 0 140 140" style="enable-background:new 0 0 140 140;" xml:space="preserve">
<style type="text/css">
	.st0{fill:#FFFFFF;stroke:#FFFFFF;stroke-width:1.5022;}
	.st1{fill:#213B6C;}
</style>
<path id="user" class="st0" d="M20.18,120.66c15.43,7.99,32.45,12.43,49.82,12.99c17.45-0.15,34.6-4.62,49.9-13.02
	c0.64-0.38,1.03-1.07,1.03-1.82c0.39-15.99-4.84-31.62-14.79-44.15c-6.27-7.65-14.75-13.18-24.28-15.83
	c13.76-6.55,19.6-23.01,13.05-36.76S71.9,2.48,58.15,9.03c-13.76,6.55-19.6,23.01-13.05,36.76c2.72,5.72,7.33,10.33,13.05,13.05
	c-9.53,2.65-18.01,8.18-24.28,15.83c-9.94,12.52-15.18,28.14-14.8,44.13C19.07,119.58,19.5,120.29,20.18,120.66z M46.66,33.93
	c0-12.89,10.45-23.34,23.34-23.34s23.34,10.45,23.34,23.34S82.89,57.28,70,57.28C57.11,57.28,46.66,46.82,46.66,33.93
	C46.66,33.93,46.66,33.93,46.66,33.93z M37.1,77.38c14.43-18.16,40.85-21.19,59.01-6.76c2.5,1.99,4.77,4.26,6.76,6.76
	c9.06,11.42,13.93,25.59,13.8,40.17c-14.41,7.55-30.4,11.61-46.67,11.85c-16.23-0.59-32.14-4.64-46.67-11.9
	C23.2,102.95,28.06,88.79,37.1,77.38z"/>
<g id="Group_614" transform="translate(0)">
	<path id="Path_37" class="st1" d="M124.73,17.92L71.13,1.85c-0.75-0.23-1.55-0.23-2.3,0L15.24,17.92c-1.7,0.51-2.86,2.07-2.86,3.84
		v58.95c0.35,8.6,3.6,16.82,9.22,23.33c5.56,6.79,12.03,12.79,19.23,17.81c8.67,6.21,17.89,11.61,27.55,16.11
		c1.04,0.47,2.23,0.47,3.27,0c9.65-4.51,18.86-9.9,27.51-16.11c7.2-5.02,13.67-11.02,19.23-17.81c5.62-6.51,8.87-14.74,9.22-23.33
		V21.76C127.61,19.98,126.44,18.42,124.73,17.92z M119.57,80.72c0,13.58-13.62,26.29-25.04,34.58
		c-7.76,5.55-15.97,10.43-24.55,14.59c-8.58-4.16-16.79-9.05-24.55-14.59C34,107.01,20.39,94.28,20.39,80.72V24.74L69.98,9.86
		l49.6,14.88L119.57,80.72z"/>
</g>
</svg>
