<?xml version="1.0" encoding="utf-8"?>
<!-- Generator: Adobe Illustrator 24.0.3, SVG Export Plug-In . SVG Version: 6.00 Build 0)  -->
<svg version="1.1" id="Layer_1" xmlns="http://www.w3.org/2000/svg" xmlns:xlink="http://www.w3.org/1999/xlink" x="0px" y="0px"
	 viewBox="0 0 140 140" style="enable-background:new 0 0 140 140;" xml:space="preserve">
<style type="text/css">
	.st0{fill:#213B6C;}
</style>
<g>
	<path id="Path_33" class="st0" d="M117.74,131.94H22.26c-7.83-0.01-14.18-6.36-14.19-14.19V32.58c0.01-7.83,6.36-14.18,14.19-14.19
		h95.49c7.83,0.01,14.18,6.36,14.19,14.19v85.16C131.93,125.58,125.58,131.93,117.74,131.94z M22.26,26.14
		c-3.53,0.03-6.39,2.88-6.41,6.41v85.19c0.03,3.53,2.88,6.39,6.41,6.41h95.49c3.53-0.03,6.39-2.88,6.41-6.41V32.58
		c-0.03-3.53-2.88-6.39-6.41-6.41L22.26,26.14z"/>
	<path id="Path_34" class="st0" d="M128.06,57.1H11.94c-2.14,0-3.87-1.73-3.87-3.87c0-2.14,1.73-3.87,3.87-3.87h116.13
		c2.14,0,3.87,1.73,3.87,3.87C131.94,55.37,130.2,57.1,128.06,57.1z"/>
	<path id="Path_35" class="st0" d="M37.75,39.04c-2.14,0-3.87-1.73-3.87-3.87c0,0,0,0,0,0V11.94c0-2.14,1.73-3.87,3.87-3.87
		s3.87,1.73,3.87,3.87v23.25C41.6,37.32,39.87,39.04,37.75,39.04z"/>
	<path id="Path_36" class="st0" d="M102.26,39.04c-2.14,0-3.87-1.73-3.87-3.87c0,0,0,0,0,0V11.94c0-2.14,1.73-3.87,3.87-3.87
		c2.14,0,3.87,1.73,3.87,3.87v23.25C106.12,37.32,104.39,39.04,102.26,39.04z"/>
</g>
</svg>
