<?xml version="1.0" encoding="utf-8"?>
<!-- Generator: Adobe Illustrator 24.0.3, SVG Export Plug-In . SVG Version: 6.00 Build 0)  -->
<svg version="1.1" id="Layer_1" xmlns="http://www.w3.org/2000/svg" xmlns:xlink="http://www.w3.org/1999/xlink" x="0px" y="0px"
	 viewBox="0 0 140 140" style="enable-background:new 0 0 140 140;" xml:space="preserve">
<style type="text/css">
	.st0{fill:#FFFFFF;}
</style>
<g id="Group_730" transform="translate(-1749.905 -63)">
	<g id="Group_613" transform="translate(1749.905 71.906)">
		<g id="Group_612">
			<path id="Path_30" class="st0" d="M125.28,8.1h-96.5v0.84l-1.22-4.14c-1.48-5.01-6.07-8.46-11.29-8.48h-8.1
				c-1.63,0-2.94,1.32-2.94,2.94s1.32,2.94,2.94,2.94h8.12c2.61,0.02,4.9,1.75,5.63,4.26l18.33,62.8l-9.39,11.73
				c-3.27,4.09-2.61,10.05,1.48,13.33c1.68,1.35,3.77,2.08,5.92,2.08h81.78c1.63,0,2.94-1.32,2.94-2.94c0-1.62-1.32-2.94-2.94-2.94
				H38.26c-1.98,0-3.59-1.61-3.59-3.59c0-0.82,0.28-1.61,0.79-2.24l9.46-11.83h57.76c4.56-0.01,8.7-2.64,10.66-6.76l20.55-43.65
				c0.59-1.26,0.9-2.64,0.9-4.03v-0.84C134.77,12.34,130.52,8.1,125.28,8.1z M128.87,18.42c0,0.53-0.12,1.05-0.34,1.52l-20.54,43.65
				c-0.98,2.06-3.05,3.37-5.33,3.38H45.71L30.25,13.99h95.03c1.98,0,3.59,1.61,3.59,3.59V18.42z"/>
			<path id="Path_31" class="st0" d="M40.55,102.31c-6.5,0-11.77,5.27-11.77,11.77c0,6.5,5.27,11.77,11.77,11.77
				c6.5,0,11.77-5.27,11.77-11.77C52.32,107.59,47.05,102.32,40.55,102.31z M40.55,119.97c-3.25,0-5.89-2.64-5.89-5.89
				s2.64-5.89,5.89-5.89c3.25,0,5.89,2.64,5.89,5.89C46.43,117.34,43.8,119.97,40.55,119.97z"/>
			<path id="Path_32" class="st0" d="M111.21,102.31c-6.5,0-11.77,5.27-11.77,11.77c0,6.5,5.27,11.77,11.77,11.77
				c6.5,0,11.77-5.27,11.77-11.77C122.98,107.59,117.71,102.32,111.21,102.31z M111.21,119.97c-3.25,0-5.89-2.64-5.89-5.89
				s2.64-5.89,5.89-5.89s5.89,2.64,5.89,5.89C117.09,117.34,114.46,119.97,111.21,119.97z"/>
		</g>
	</g>
</g>
</svg>
