<?xml version="1.0" encoding="utf-8"?>
<!-- Generator: Adobe Illustrator 24.0.3, SVG Export Plug-In . SVG Version: 6.00 Build 0)  -->
<svg version="1.1" id="Layer_1" xmlns="http://www.w3.org/2000/svg" xmlns:xlink="http://www.w3.org/1999/xlink" x="0px" y="0px"
	 viewBox="0 0 130 130" style="enable-background:new 0 0 130 130;" xml:space="preserve">
<style type="text/css">
	.st0{fill:#123C8B;stroke:#123C8B;stroke-width:4.0369;}
</style>
<path id="user_1_" class="st0" d="M19.85,111.45c13.96,7.22,29.35,11.23,45.05,11.75c15.78-0.14,31.29-4.19,45.12-11.79
	c0.58-0.35,0.93-0.97,0.93-1.64c0.35-14.46-4.38-28.59-13.38-39.92c-5.67-6.92-13.34-11.91-21.95-14.31
	c12.44-5.92,17.73-20.81,11.81-33.25C81.51,9.84,66.62,4.55,54.18,10.47c-12.44,5.92-17.73,20.81-11.81,33.25
	c2.46,5.17,6.63,9.34,11.81,11.81c-8.61,2.4-16.28,7.4-21.95,14.31c-9,11.33-13.73,25.46-13.38,39.92
	C18.85,110.46,19.24,111.1,19.85,111.45L19.85,111.45z M43.8,33.02c0-11.66,9.45-21.11,21.11-21.11s21.11,9.45,21.11,21.11
	c0,11.66-9.45,21.11-21.11,21.11S43.8,44.67,43.8,33.02C43.8,33.02,43.8,33.02,43.8,33.02z M35.15,72.32
	c13.05-16.43,36.94-19.16,53.36-6.12c2.26,1.8,4.32,3.85,6.12,6.12c8.19,10.33,12.59,23.15,12.47,36.33
	c-13.04,6.83-27.49,10.5-42.21,10.72c-14.68-0.53-29.07-4.2-42.21-10.76c-0.11-13.17,4.3-25.98,12.49-36.3L35.15,72.32z"/>
</svg>
