<?xml version="1.0" encoding="utf-8"?>
<!-- Generator: Adobe Illustrator 24.0.3, SVG Export Plug-In . SVG Version: 6.00 Build 0)  -->
<svg version="1.1" id="Layer_1" xmlns="http://www.w3.org/2000/svg" xmlns:xlink="http://www.w3.org/1999/xlink" x="0px" y="0px"
	 viewBox="0 0 140 140" style="enable-background:new 0 0 140 140;" xml:space="preserve">
<style type="text/css">
	.st0{fill:#FFFFFF;stroke:#FFFFFF;stroke-width:1.5022;}
</style>
<path id="user" class="st0" d="M20.18,120.66c15.43,7.99,32.45,12.43,49.82,12.99c17.45-0.15,34.6-4.62,49.9-13.02
	c0.64-0.38,1.03-1.07,1.03-1.82c0.39-15.99-4.84-31.62-14.79-44.15c-6.27-7.65-14.75-13.18-24.28-15.83
	c13.76-6.55,19.6-23.01,13.05-36.76S71.9,2.48,58.15,9.03c-13.76,6.55-19.6,23.01-13.05,36.76c2.72,5.72,7.33,10.33,13.05,13.05
	c-9.53,2.65-18.01,8.18-24.28,15.83c-9.94,12.52-15.18,28.14-14.8,44.13C19.07,119.58,19.5,120.29,20.18,120.66z M46.66,33.93
	c0-12.89,10.45-23.34,23.34-23.34s23.34,10.45,23.34,23.34S82.89,57.28,70,57.28C57.11,57.28,46.66,46.82,46.66,33.93
	C46.66,33.93,46.66,33.93,46.66,33.93z M37.1,77.38c14.43-18.16,40.85-21.19,59.01-6.76c2.5,1.99,4.77,4.26,6.76,6.76
	c9.06,11.42,13.93,25.59,13.8,40.17c-14.41,7.55-30.4,11.61-46.67,11.85c-16.23-0.59-32.14-4.64-46.67-11.9
	C23.2,102.95,28.06,88.79,37.1,77.38z"/>
</svg>
